<svg xmlns="http://www.w3.org/2000/svg" viewBox="0 0 1331 30.44"><defs><style>.cls-1{font-size:24px;font-family:Yantramanav-Medium, Yantramanav;}.cls-2{letter-spacing:-0.03em;}.cls-3{letter-spacing:-0.08em;}.cls-4{letter-spacing:-0.02em;}.cls-5{letter-spacing:0.01em;}.cls-6{letter-spacing:-0.03em;}.cls-7{letter-spacing:0.01em;}.cls-8{fill:#3c7cd9;}.cls-9{fill:#4eb271;}.cls-10{fill:#f3514e;}.cls-11{fill:#297635;}.cls-12{fill:#61e347;}.cls-13{fill:#dd92f3;}</style></defs><title>parties-key</title><g id="Layer_2" data-name="Layer 2"><g id="Layer_1-2" data-name="Layer 1"><text class="cls-1" transform="translate(27.71 21.86)">FINE GAEL</text><text class="cls-1" transform="translate(660.71 21.36)">SINN FÉIN</text><text class="cls-1" transform="translate(1085.71 21.86)">OTHERs/INDEPENDEN<tspan class="cls-2" x="221.65" y="0">T</tspan><tspan x="233.36" y="0">s</tspan></text><text class="cls-1" transform="translate(848.71 21.86)">GREEN <tspan class="cls-3" x="75.36" y="0">P</tspan><tspan x="87.46" y="0">A</tspan><tspan class="cls-4" x="101.38" y="0">R</tspan><tspan class="cls-5" x="115.15" y="0">T</tspan><tspan x="127.82" y="0">Y</tspan></text><text class="cls-1" transform="translate(215.71 21.86)">FIANNA <tspan class="cls-6" x="83.38" y="0">F</tspan><tspan x="95.29" y="0">ÁIL</tspan></text><text class="cls-1" transform="translate(423.71 22.36)"><tspan class="cls-7">L</tspan><tspan x="11.88" y="0">ABOUR </tspan><tspan class="cls-3" x="89.5" y="0">P</tspan><tspan x="101.59" y="0">A</tspan><tspan class="cls-4" x="115.51" y="0">R</tspan><tspan class="cls-5" x="129.28" y="0">T</tspan><tspan x="141.95" y="0">Y</tspan></text><rect class="cls-8" y="7.23" width="16" height="16"/><rect class="cls-9" x="190" y="7.23" width="16" height="16"/><rect class="cls-10" x="401" y="7.23" width="16" height="16"/><rect class="cls-11" x="634" y="7.23" width="16" height="16"/><rect class="cls-12" x="825" y="7.23" width="16" height="16"/><rect class="cls-13" x="1062" y="7.23" width="16" height="16"/></g></g></svg>